HIERARCHY
ROOT hip
{
  OFFSET 0 0 0
  CHANNELS 6 Xposition Yposition Zposition Zrotation Yrotation Xrotation
  JOINT abdomen
  {
    OFFSET 0 20.6881 -0.73152
    CHANNELS 3 Zrotation Xrotation Yrotation
    JOINT chest
    {
      OFFSET 0 11.7043 -0.48768
      CHANNELS 3 Zrotation Xrotation Yrotation
      JOINT neck
      {
        OFFSET 0 22.1894 -2.19456
        CHANNELS 3 Zrotation Xrotation Yrotation
        JOINT head
        {
          OFFSET -0.24384 7.07133 1.2192
          CHANNELS 3 Zrotation Xrotation Yrotation
          JOINT leftEye
          {
            OFFSET 4.14528 8.04674 8.04672
            CHANNELS 3 Zrotation Xrotation Yrotation
            End Site
            {
              OFFSET 1 0 0
            }
          }
          JOINT rightEye
          {
            OFFSET -3.6576 8.04674 8.04672
            CHANNELS 3 Zrotation Xrotation Yrotation
            End Site
            {
              OFFSET 1 0 0
            }
          }
        }
      }
      JOINT rCollar
      {
        OFFSET -2.68224 19.2634 -4.8768
        CHANNELS 3 Zrotation Xrotation Yrotation
        JOINT rShldr
        {
          OFFSET -8.77824 -1.95073 1.46304
          CHANNELS 3 Zrotation Xrotation Yrotation
          JOINT rForeArm
          {
            OFFSET -28.1742 -1.7115 0.48768
            CHANNELS 3 Zrotation Xrotation Yrotation
            JOINT rHand
            {
              OFFSET -22.5879 0.773209 7.07136
              CHANNELS 3 Zrotation Xrotation Yrotation
              JOINT rThumb1
              {
                OFFSET -1.2192 -0.487915 3.41376
                CHANNELS 3 Zrotation Xrotation Yrotation
                JOINT rThumb2
                {
                  OFFSET -3.37035 -0.52449 3.41376
                  CHANNELS 3 Zrotation Xrotation Yrotation
                  End Site
                  {
                    OFFSET -1.78271 -1.18214 1.43049
                  }
                }
              }
              JOINT rIndex1
              {
                OFFSET -7.75947 0.938293 5.60832
                CHANNELS 3 Zrotation Xrotation Yrotation
                JOINT rIndex2
                {
                  OFFSET -2.54057 -0.884171 1.56538
                  CHANNELS 3 Zrotation Xrotation Yrotation
                  End Site
                  {
                    OFFSET -1.62519 -0.234802 1.16502
                  }
                }
              }
              JOINT rMid1
              {
                OFFSET -8.24714 1.18213 3.41376
                CHANNELS 3 Zrotation Xrotation Yrotation
                JOINT rMid2
                {
                  OFFSET -3.10165 -0.590103 1.0647
                  CHANNELS 3 Zrotation Xrotation Yrotation
                  End Site
                  {
                    OFFSET -2.48547 -0.328903 0.83742
                  }
                }
              }
              JOINT rRing1
              {
                OFFSET -8.82822 0.546677 1.51678
                CHANNELS 3 Zrotation Xrotation Yrotation
                JOINT rRing2
                {
                  OFFSET -2.60934 -0.819778 -0.0198488
                  CHANNELS 3 Zrotation Xrotation Yrotation
                  End Site
                  {
                    OFFSET -2.33842 -0.294052 0.168128
                  }
                }
              }
              JOINT rPinky1
              {
                OFFSET -8.27202 -0.0477905 -0.4584
                CHANNELS 3 Zrotation Xrotation Yrotation
                JOINT rPinky2
                {
                  OFFSET -1.82734 -0.647385 -0.700984
                  CHANNELS 3 Zrotation Xrotation Yrotation
                  End Site
                  {
                    OFFSET -1.69225 -0.51767 -0.607171
                  }
                }
              }
            }
          }
        }
      }
      JOINT lCollar
      {
        OFFSET 2.68224 19.2634 -4.8768
        CHANNELS 3 Zrotation Xrotation Yrotation
        JOINT lShldr
        {
          OFFSET 8.77824 -1.95073 1.46304
          CHANNELS 3 Zrotation Xrotation Yrotation
          JOINT lForeArm
          {
            OFFSET 28.1742 -1.7115 0.48768
            CHANNELS 3 Zrotation Xrotation Yrotation
            JOINT lHand
            {
              OFFSET 22.5879 0.773209 7.07136
              CHANNELS 3 Zrotation Xrotation Yrotation
              JOINT lThumb1
              {
                OFFSET 1.2192 -0.487915 3.41376
                CHANNELS 3 Zrotation Xrotation Yrotation
                JOINT lThumb2
                {
                  OFFSET 3.37035 -0.52449 3.41376
                  CHANNELS 3 Zrotation Xrotation Yrotation
                  End Site
                  {
                    OFFSET 1.78271 -1.18214 1.43049
                  }
                }
              }
              JOINT lIndex1
              {
                OFFSET 7.75947 0.938293 5.60832
                CHANNELS 3 Zrotation Xrotation Yrotation
                JOINT lIndex2
                {
                  OFFSET 2.54057 -0.884171 1.56538
                  CHANNELS 3 Zrotation Xrotation Yrotation
                  End Site
                  {
                    OFFSET 1.62519 -0.234802 1.16502
                  }
                }
              }
              JOINT lMid1
              {
                OFFSET 8.24714 1.18213 3.41376
                CHANNELS 3 Zrotation Xrotation Yrotation
                JOINT lMid2
                {
                  OFFSET 3.10165 -0.590103 1.0647
                  CHANNELS 3 Zrotation Xrotation Yrotation
                  End Site
                  {
                    OFFSET 2.48547 -0.328903 0.83742
                  }
                }
              }
              JOINT lRing1
              {
                OFFSET 8.82822 0.546677 1.51678
                CHANNELS 3 Zrotation Xrotation Yrotation
                JOINT lRing2
                {
                  OFFSET 2.60934 -0.819778 -0.0198488
                  CHANNELS 3 Zrotation Xrotation Yrotation
                  End Site
                  {
                    OFFSET 2.33842 -0.294052 0.168128
                  }
                }
              }
              JOINT lPinky1
              {
                OFFSET 8.27202 -0.0477905 -0.4584
                CHANNELS 3 Zrotation Xrotation Yrotation
                JOINT lPinky2
                {
                  OFFSET 1.82734 -0.647385 -0.700984
                  CHANNELS 3 Zrotation Xrotation Yrotation
                  End Site
                  {
                    OFFSET 1.69225 -0.51767 -0.607171
                  }
                }
              }
            }
          }
        }
      }
    }
  }
  JOINT rButtock
  {
    OFFSET -8.77824 4.35084 1.2192
    CHANNELS 3 Zrotation Xrotation Yrotation
    JOINT rThigh
    {
      OFFSET 0 -1.70687 -2.19456
      CHANNELS 3 Zrotation Xrotation Yrotation
      JOINT rShin
      {
        OFFSET 0 -36.8199 0.73152
        CHANNELS 3 Zrotation Xrotation Yrotation
        JOINT rFoot
        {
          OFFSET 0.73152 -45.1104 -5.12064
          CHANNELS 3 Zrotation Xrotation Yrotation
          End Site
          {
            OFFSET -1.1221 -3.69964 12.103
          }
        }
      }
    }
  }
  JOINT lButtock
  {
    OFFSET 8.77824 4.35084 1.2192
    CHANNELS 3 Zrotation Xrotation Yrotation
    JOINT lThigh
    {
      OFFSET 0 -1.70687 -2.19456
      CHANNELS 3 Zrotation Xrotation Yrotation
      JOINT lShin
      {
        OFFSET 0 -36.8199 0.73152
        CHANNELS 3 Zrotation Xrotation Yrotation
        JOINT lFoot
        {
          OFFSET -0.73152 -45.1104 -5.12064
          CHANNELS 3 Zrotation Xrotation Yrotation
          End Site
          {
            OFFSET 1.1221 -3.69964 12.103
          }
        }
      }
    }
  }
}
MOTION
Frames:	5
Frame Time:	0.03333
6.252100017445628 78.83350253105164 -0.6599999938771361 1.2519397735595703 4.391900062561035 5.149094581604004 -6.827930927276611 8.999217987060547 5.883270740509033 1.7953300476074219 -6.628206729888916 1.6275463104248047 -5.5432515144348145 11.53540325164795 -5.466953754425049 6.720516681671143 -23.78730010986328 -8.987743377685547 -0.0 0.0 -0.0 -0.0 0.0 -0.0 -0.0 0.0 -0.0 2.0963854789733887 35.91499710083008 62.87569808959961 -26.836191177368164 -25.805410385131836 60.56989669799805 -0.0519539900124073 -6.49144983291626 -0.9161269068717957 -0.0 0.0 -0.0 -0.0 0.0 -0.0 -0.0 0.0 -0.0 7.73087739944458 5.47489595413208 0.41732463240623474 -0.0 0.0 -0.0 2.9054994583129883 0.9650753736495972 0.10300876200199127 -0.0 0.0 -0.0 10.278595924377441 0.7317469120025635 0.026285577565431595 -0.0 0.0 -0.0 2.221662759780884 -0.7335850596427917 -0.20831839740276337 -0.0 0.0 -0.0 -41.17409896850586 43.08679962158203 -44.4463996887207 27.213600158691406 -27.07889747619629 -62.59919357299805 0.36146822571754456 -16.851898193359375 2.439849615097046 -0.0 0.0 -0.0 -0.0 0.0 -0.0 -0.0 0.0 -0.0 -7.73087739944458 5.47489595413208 -0.41732463240623474 -0.0 0.0 -0.0 -2.9054994583129883 0.9650753736495972 -0.10300876200199127 -0.0 0.0 -0.0 -10.278595924377441 0.7317469120025635 -0.026285577565431595 -0.0 0.0 -0.0 -2.221662759780884 -0.7335850596427917 0.20831839740276337 -0.0 0.0 -0.0 2.795222282409668 -37.54939270019531 2.2093148231506348 -0.7597380876541138 54.09688949584961 1.2250933647155762 -1.1987487077713013 -13.708393096923828 -2.7145113945007324 -0.0 0.0 -0.0 -12.467601776123047 -34.03560256958008 -9.441471099853516 0.4880428612232208 48.06277847290039 -1.0177173614501953 2.515716075897217 -14.462584495544434 6.057881832122803
6.240700017224299 78.82140278816223 -0.5949999937001849 1.2494983673095703 4.5298075675964355 5.1547932624816895 -6.767118453979492 8.952448844909668 5.892182350158691 1.7165610790252686 -6.657801151275635 1.6272335052490234 -5.595698833465576 11.524600982666016 -5.529213905334473 6.760086536407471 -23.82379913330078 -9.09652042388916 -0.0 0.0 -0.0 -0.0 0.0 -0.0 -0.0 0.0 -0.0 0.177556112408638 36.22809982299805 64.40069580078125 -27.05120086669922 -26.5104923248291 61.694705963134766 -0.05253081023693085 -6.526331901550293 -0.9213365316390991 -0.0 0.0 -0.0 -0.0 0.0 -0.0 -0.0 0.0 -0.0 7.73087739944458 5.47489595413208 0.41732463240623474 -0.0 0.0 -0.0 2.9054994583129883 0.9650753736495972 0.10300876200199127 -0.0 0.0 -0.0 10.278595924377441 0.7317469120025635 0.026285577565431595 -0.0 0.0 -0.0 2.221662759780884 -0.7335850596427917 -0.20831839740276337 -0.0 0.0 -0.0 -40.88920211791992 43.74459457397461 -43.956600189208984 27.43028450012207 -27.899112701416016 -63.90528869628906 0.34234243631362915 -16.415794372558594 2.373042106628418 -0.0 0.0 -0.0 -0.0 0.0 -0.0 -0.0 0.0 -0.0 -7.73087739944458 5.47489595413208 -0.41732463240623474 -0.0 0.0 -0.0 -2.9054994583129883 0.9650753736495972 -0.10300876200199127 -0.0 0.0 -0.0 -10.278595924377441 0.7317469120025635 -0.026285577565431595 -0.0 0.0 -0.0 -2.221662759780884 -0.7335850596427917 0.20831839740276337 -0.0 0.0 -0.0 2.627159833908081 -37.43369674682617 1.9093608856201172 -0.7573755979537964 54.02358627319336 1.2118825912475586 -0.8768384456634521 -13.75149917602539 -1.8064854145050049 -0.0 0.0 -0.0 -12.515265464782715 -34.0066032409668 -9.616456985473633 0.4842362105846405 48.10661697387695 -1.0162317752838135 2.5218141078948975 -14.473682403564453 6.0766119956970215
6.215900017559761 78.8191020488739 -0.5199999930482591 1.163204550743103 4.667727470397949 5.143362522125244 -6.7055344581604 8.911754608154297 5.9347405433654785 1.6393308639526367 -6.686551570892334 1.636985421180725 -5.612441539764404 11.531988143920898 -5.598560810089111 6.750585079193115 -23.897205352783203 -9.232563018798828 -0.0 0.0 -0.0 -0.0 0.0 -0.0 -0.0 0.0 -0.0 -1.6010253429412842 36.49689865112305 65.83989715576172 -27.24520492553711 -27.194190979003906 62.7826042175293 -0.054123856127262115 -6.624305248260498 -0.9352059960365295 -0.0 0.0 -0.0 -0.0 0.0 -0.0 -0.0 0.0 -0.0 7.73087739944458 5.47489595413208 0.41732463240623474 -0.0 0.0 -0.0 2.9054994583129883 0.9650753736495972 0.10300876200199127 -0.0 0.0 -0.0 10.278595924377441 0.7317469120025635 0.026285577565431595 -0.0 0.0 -0.0 2.221662759780884 -0.7335850596427917 -0.20831839740276337 -0.0 0.0 -0.0 -40.643394470214844 44.41189956665039 -43.41780090332031 27.62579917907715 -28.71610450744629 -65.2033920288086 0.3305976986885071 -16.141408920288086 2.3311307430267334 -0.0 0.0 -0.0 -0.0 0.0 -0.0 -0.0 0.0 -0.0 -7.73087739944458 5.47489595413208 -0.41732463240623474 -0.0 0.0 -0.0 -2.9054994583129883 0.9650753736495972 -0.10300876200199127 -0.0 0.0 -0.0 -10.278595924377441 0.7317469120025635 -0.026285577565431595 -0.0 0.0 -0.0 -2.221662759780884 -0.7335850596427917 0.20831839740276337 -0.0 0.0 -0.0 2.4172308444976807 -37.3440055847168 1.4454585313796997 -0.7555606365203857 53.95867156982422 1.204939842224121 -0.7143985033035278 -13.98297119140625 -1.3343932628631592 -0.0 0.0 -0.0 -12.544496536254883 -33.985206604003906 -9.793557167053223 0.48960021138191223 48.14898681640625 -1.0191222429275513 2.5420782566070557 -14.473993301391602 6.13932466506958
6.196300018200418 78.82059812545776 -0.451999993310892 1.0609443187713623 4.732100486755371 5.136390209197998 -6.624592304229736 8.843241691589355 6.023179531097412 1.5763803720474243 -6.691513538360596 1.6612778902053833 -5.562464237213135 11.606194496154785 -5.669573783874512 6.574968338012695 -24.089296340942383 -9.41273021697998 -0.0 0.0 -0.0 -0.0 0.0 -0.0 -0.0 0.0 -0.0 -3.1484906673431396 36.73540496826172 67.12089538574219 -27.419702529907227 -27.85700225830078 63.83749771118164 -0.05639893561601639 -6.7610883712768555 -0.9547564387321472 -0.0 0.0 -0.0 -0.0 0.0 -0.0 -0.0 0.0 -0.0 7.73087739944458 5.47489595413208 0.41732463240623474 -0.0 0.0 -0.0 2.9054994583129883 0.9650753736495972 0.10300876200199127 -0.0 0.0 -0.0 10.278595924377441 0.7317469120025635 0.026285577565431595 -0.0 0.0 -0.0 2.221662759780884 -0.7335850596427917 -0.20831839740276337 -0.0 0.0 -0.0 -40.49679183959961 45.10349655151367 -42.78409957885742 27.803503036499023 -29.545597076416016 -66.5210952758789 0.3363548517227173 -16.27630615234375 2.351799726486206 -0.0 0.0 -0.0 -0.0 0.0 -0.0 -0.0 0.0 -0.0 -7.73087739944458 5.47489595413208 -0.41732463240623474 -0.0 0.0 -0.0 -2.9054994583129883 0.9650753736495972 -0.10300876200199127 -0.0 0.0 -0.0 -10.278595924377441 0.7317469120025635 -0.026285577565431595 -0.0 0.0 -0.0 -2.221662759780884 -0.7335850596427917 0.20831839740276337 -0.0 0.0 -0.0 2.026444911956787 -37.245391845703125 0.47624680399894714 -0.7490240335464478 53.84088897705078 1.1935830116271973 -0.506737232208252 -14.112504959106445 -0.7447054386138916 -0.0 0.0 -0.0 -12.550220489501953 -33.9359016418457 -9.972060203552246 0.494410902261734 48.16635513305664 -1.0221484899520874 2.598759651184082 -14.478507995605469 6.30794620513916
6.173900017893175 78.8182020187378 -0.3779999944526935 1.0145727396011353 4.778374195098877 5.162574291229248 -6.558383941650391 8.764710426330566 6.137571811676025 1.5357825756072998 -6.689817428588867 1.694148302078247 -5.535494804382324 11.685113906860352 -5.7383131980896 6.4538140296936035 -24.273700714111328 -9.575909614562988 -0.0 0.0 -0.0 -0.0 0.0 -0.0 -0.0 0.0 -0.0 -4.562130928039551 36.95820617675781 68.31908416748047 -27.57720375061035 -28.50429344177246 64.86628723144531 -0.05777144432067871 -6.842649936676025 -0.9663057327270508 -0.0 0.0 -0.0 -0.0 0.0 -0.0 -0.0 0.0 -0.0 7.73087739944458 5.47489595413208 0.41732463240623474 -0.0 0.0 -0.0 2.9054994583129883 0.9650753736495972 0.10300876200199127 -0.0 0.0 -0.0 10.278595924377441 0.7317469120025635 0.026285577565431595 -0.0 0.0 -0.0 2.221662759780884 -0.7335850596427917 -0.20831839740276337 -0.0 0.0 -0.0 -40.42250061035156 45.81089401245117 -42.07899856567383 27.956998825073242 -30.362098693847656 -67.82689666748047 0.34551918506622314 -16.488998413085938 2.38427996635437 -0.0 0.0 -0.0 -0.0 0.0 -0.0 -0.0 0.0 -0.0 -7.73087739944458 5.47489595413208 -0.41732463240623474 -0.0 0.0 -0.0 -2.9054994583129883 0.9650753736495972 -0.10300876200199127 -0.0 0.0 -0.0 -10.278595924377441 0.7317469120025635 -0.026285577565431595 -0.0 0.0 -0.0 -2.221662759780884 -0.7335850596427917 0.20831839740276337 -0.0 0.0 -0.0 1.6171644926071167 -37.147403717041016 -0.5751811861991882 -0.744416356086731 53.720706939697266 1.1843656301498413 -0.3255002796649933 -14.257615089416504 -0.235537588596344 -0.0 0.0 -0.0 -12.519116401672363 -33.90159225463867 -10.09732437133789 0.49161505699157715 48.19688415527344 -1.0224692821502686 2.6560986042022705 -14.515802383422852 6.466792106628418
